Coordinates
version=1
nRows=16
nColumns=40
inDegrees=yes

Units are S.I. units (second, meters, Newtons, ...)
If the header above contains a line with 'inDegrees', this indicates whether rotational values are in degrees (yes) or radians (no).

endheader
time	pelvis_tilt	pelvis_list	pelvis_rotation	pelvis_tx	pelvis_ty	pelvis_tz	hip_flexion_r	hip_adduction_r	hip_rotation_r	knee_angle_r	knee_angle_r_beta	ankle_angle_r	subtalar_angle_r	mtp_angle_r	hip_flexion_l	hip_adduction_l	hip_rotation_l	knee_angle_l	knee_angle_l_beta	ankle_angle_l	subtalar_angle_l	mtp_angle_l	lumbar_extension	lumbar_bending	lumbar_rotation	arm_flex_r	arm_add_r	arm_rot_r	elbow_flex_r	pro_sup_r	wrist_flex_r	wrist_dev_r	arm_flex_l	arm_add_l	arm_rot_l	elbow_flex_l	pro_sup_l	wrist_flex_l	wrist_dev_l
      3.68000000	      6.98048200	     -5.16591854	     -5.08728442	     -0.17320267	      1.40948291	     -0.87673890	     -6.49252495	     -4.54179433	      5.39212242	     15.55392804	      0.27146726	    -25.72840004	      0.00000000	      0.00000000	    -11.46204030	    -15.17729975	     -9.59797556	     13.24320951	      0.23113761	    -28.54557421	      0.00000000	      0.00000000	     -6.60204533	      5.38652559	     -1.45148646	    -57.55520486	    -41.66252761	      0.43766281	    121.74494355	     87.49392384	      0.00000000	      0.00000000	    -32.15736274	    -58.85241636	     40.85451631	    106.97078812	     88.22992638	      0.00000000	      0.00000000
      3.68500000	      7.12333090	     -5.12484457	     -5.02426560	     -0.17354441	      1.40112890	     -0.87721042	     -6.46331980	     -4.79781694	      4.67564196	     15.97827563	      0.27887352	    -25.25459710	      0.00000000	      0.00000000	    -11.41451991	    -15.22195313	     -9.65240594	     13.44841079	      0.23471905	    -28.21092966	      0.00000000	      0.00000000	     -6.80225480	      5.34895724	     -1.59246712	    -57.52057860	    -41.69337729	      0.51761686	    121.66991113	     87.48652001	      0.00000000	      0.00000000	    -32.78794508	    -58.66014200	     40.18822480	    106.97250268	     88.23305436	      0.00000000	      0.00000000
      3.69000000	      7.28923656	     -5.08794335	     -5.04495391	     -0.17390416	      1.39240274	     -0.87756039	     -6.42951630	     -5.05666398	      4.09114504	     16.45132694	      0.28712982	    -24.68315219	      0.00000000	      0.00000000	    -11.44581301	    -15.25947855	     -9.77912903	     13.67784796	      0.23872348	    -27.93724172	      0.00000000	      0.00000000	     -7.09382993	      5.33612149	     -1.56744316	    -57.61636773	    -41.63774403	      0.47661547	    121.70427652	     87.49369004	      0.00000000	      0.00000000	    -33.23148810	    -58.52648871	     39.66006478	    107.00135807	     88.24675610	      0.00000000	      0.00000000
      3.69500000	      7.39014048	     -5.01947187	     -4.99981002	     -0.17502619	      1.38352215	     -0.87814084	     -6.22654909	     -5.35963688	      3.29503516	     17.02458797	      0.29713511	    -24.13416649	      0.00000000	      0.00000000	    -11.23318712	    -15.29808254	     -9.94903752	     14.02716620	      0.24482023	    -27.78700955	      0.00000000	      0.00000000	     -7.34698716	      5.28267909	     -1.64657632	    -57.52820090	    -41.65618768	      0.50959510	    121.68459736	     87.55634218	      0.00000000	      0.00000000	    -33.58716042	    -58.37128061	     39.14113487	    107.01650328	     88.21611603	      0.00000000	      0.00000000
      3.70000000	      7.55929944	     -4.98163454	     -4.97598396	     -0.17471289	      1.37429409	     -0.87835994	     -6.28301902	     -5.63417043	      2.52962893	     17.40376516	      0.30375300	    -23.66088970	      0.00000000	      0.00000000	    -11.31541650	    -15.35429703	    -10.12407704	     14.19266129	      0.24770867	    -27.46214641	      0.00000000	      0.00000000	     -7.52429453	      5.25358604	     -1.62283101	    -57.76684328	    -41.51305931	      0.41104055	    121.72788378	     87.54528487	      0.00000000	      0.00000000	    -33.99320774	    -58.31848373	     38.79703790	    107.06553195	     88.23579530	      0.00000000	      0.00000000
      3.70500000	      7.72219716	     -4.89550319	     -4.96906649	     -0.17518074	      1.36487975	     -0.87875198	     -6.29343804	     -5.95840177	      1.96142026	     17.77003571	      0.31014563	    -23.27222311	      0.00000000	      0.00000000	    -11.25646408	    -15.36984737	    -10.28952148	     14.48795802	      0.25286257	    -27.25644526	      0.00000000	      0.00000000	     -7.77267920	      5.17326819	     -1.58723528	    -57.84344652	    -41.44886400	      0.44973590	    121.68952405	     87.37113463	      0.00000000	      0.00000000	    -34.21458781	    -58.26439371	     38.55159377	    107.10886513	     88.25679004	      0.00000000	      0.00000000
      3.71000000	      7.75740280	     -4.81328400	     -4.90463965	     -0.17632156	      1.35523142	     -0.87929136	     -6.05127114	     -6.27080858	      1.31893668	     18.28286487	      0.31909619	    -22.70056901	      0.00000000	      0.00000000	    -10.95847744	    -15.40284819	    -10.28071991	     14.85040980	      0.25918855	    -27.15480699	      0.00000000	      0.00000000	     -7.95956806	      5.11054613	     -1.67893834	    -57.69648827	    -41.44731908	      0.53457730	    121.63838880	     87.45406325	      0.00000000	      0.00000000	    -34.52018796	    -58.08027522	     38.07889148	    107.03566110	     88.23654770	      0.00000000	      0.00000000
      3.71500000	      8.00680078	     -4.87303543	     -4.90727354	     -0.17605685	      1.34523289	     -0.87955081	     -6.23356991	     -6.46654188	      0.65974547	     18.58487625	      0.32436728	    -22.10869670	      0.00000000	      0.00000000	    -11.07924366	    -15.60510399	    -10.92647490	     15.18596580	      0.26504510	    -26.68190403	      0.00000000	      0.00000000	     -8.24774892	      5.19168564	     -1.59218960	    -58.09755357	    -41.35459610	      0.33481125	    121.75422126	     87.54342047	      0.00000000	      0.00000000	    -34.90731744	    -58.03691638	     37.71867516	    107.14728654	     88.21159021	      0.00000000	      0.00000000
      3.72000000	      8.05860997	     -4.75156263	     -4.75360351	     -0.17711315	      1.33509166	     -0.88031849	     -6.07309602	     -6.84200059	     -0.07185328	     19.01493861	      0.33187329	    -21.55558358	      0.00000000	      0.00000000	    -10.73646269	    -15.61297649	    -10.79972975	     15.62904972	      0.27277838	    -26.42949314	      0.00000000	      0.00000000	     -8.43016965	      5.10147831	     -1.71286521	    -58.07182456	    -41.35397056	      0.43411383	    121.70258587	     87.42652457	      0.00000000	      0.00000000	    -34.97050510	    -57.91683436	     37.53356781	    107.19847321	     88.22462616	      0.00000000	      0.00000000
      3.72500000	      8.06971031	     -4.77149915	     -4.80346070	     -0.17698669	      1.32452292	     -0.88046126	     -6.05944821	     -7.00707159	     -0.18300399	     19.10386273	      0.33342530	    -21.37788031	      0.00000000	      0.00000000	    -10.64890726	    -15.72904344	    -10.88184723	     15.76707089	      0.27518730	    -26.31971202	      0.00000000	      0.00000000	     -8.43523627	      5.13900225	     -1.62720052	    -58.21421004	    -41.29409610	      0.49512265	    121.63134082	     87.30983533	      0.00000000	      0.00000000	    -35.15864482	    -57.87902479	     37.58214579	    107.12155782	     88.07154601	      0.00000000	      0.00000000
      3.73000000	      8.37031290	     -4.69162079	     -4.80412557	     -0.17735532	      1.31402413	     -0.88074398	     -6.23957773	     -7.36157501	     -0.85510345	     19.41896546	      0.33892488	    -20.57671393	      0.00000000	      0.00000000	    -10.67048804	    -15.82049207	    -11.58428191	     16.25425466	      0.28369026	    -26.06284596	      0.00000000	      0.00000000	     -8.85898515	      5.05660675	     -1.46446460	    -58.53712870	    -41.04214720	      0.24527751	    121.72678806	     87.40517654	      0.00000000	      0.00000000	    -35.32548034	    -57.84531764	     37.24085088	    107.16811354	     88.06413591	      0.00000000	      0.00000000
      3.73500000	      8.45736904	     -4.60405056	     -4.82890879	     -0.17785242	      1.30312840	     -0.88110725	     -6.19262905	     -7.67002124	     -1.08428489	     19.68597548	      0.34358509	    -19.97484669	      0.00000000	      0.00000000	    -10.49258432	    -15.85374748	    -11.83239464	     16.62633993	      0.29018437	    -25.92385400	      0.00000000	      0.00000000	     -9.04507759	      4.97768186	     -1.34490881	    -58.65716683	    -40.87626913	      0.11457902	    121.60660902	     87.47980233	      0.00000000	      0.00000000	    -35.45658530	    -57.74320951	     37.02977729	    107.12821467	     88.12917870	      0.00000000	      0.00000000
      3.74000000	      8.43297633	     -4.57250568	     -4.85883986	     -0.17859979	      1.29199653	     -0.88140996	     -6.04371782	     -7.86637273	     -1.11846832	     19.80753575	      0.34570672	    -19.75025144	      0.00000000	      0.00000000	    -10.25844725	    -15.93270782	    -11.83734043	     16.80879466	      0.29336881	    -25.70543459	      0.00000000	      0.00000000	     -9.11693066	      4.96433546	     -1.29303489	    -58.68216532	    -40.80638503	      0.20634249	    121.49851507	     87.23262114	      0.00000000	      0.00000000	    -35.55561885	    -57.62295064	     37.04341874	    107.05221126	     87.87488788	      0.00000000	      0.00000000
      3.74500000	      8.71685306	     -4.37108754	     -4.87716226	     -0.17883133	      1.28072255	     -0.88178379	     -6.26332455	     -8.32677772	     -1.48999322	     19.95111149	      0.34821259	    -19.00223797	      0.00000000	      0.00000000	    -10.27959780	    -15.86308169	    -12.35549769	     17.21927113	      0.30053298	    -25.45342604	      0.00000000	      0.00000000	     -9.48702130	      4.73966203	     -1.13035741	    -58.92877264	    -40.63914400	      0.14726711	    121.55906237	     87.31525974	      0.00000000	      0.00000000	    -35.66530726	    -57.56064084	     36.74039383	    107.00968632	     87.96893346	      0.00000000	      0.00000000
      3.75000000	      8.68247961	     -4.24975617	     -4.96465323	     -0.17972066	      1.26896951	     -0.88200867	     -5.98727477	     -8.63132703	     -1.46734291	     20.32290958	      0.35470169	    -18.18552016	      0.00000000	      0.00000000	     -9.94061913	    -15.89619505	    -12.68028277	     17.63463846	      0.30778250	    -24.98725667	      0.00000000	      0.00000000	     -9.61029237	      4.59427714	     -1.02284338	    -58.99327086	    -40.43624445	     -0.06362304	    121.43046709	     87.64233979	      0.00000000	      0.00000000	    -36.11861720	    -57.33705189	     36.14741224	    106.96504686	     88.18274392	      0.00000000	      0.00000000
      3.75500000	      8.66179839	     -4.18654028	     -4.94007865	     -0.18078962	      1.25714645	     -0.88242758	     -5.79687150	     -8.85189802	     -1.49203983	     20.46431989	      0.35716976	    -17.95127457	      0.00000000	      0.00000000	     -9.62679419	    -15.96425797	    -12.66807122	     17.84015481	      0.31136944	    -24.71877912	      0.00000000	      0.00000000	     -9.74293614	      4.53261099	     -0.98939514	    -58.94986804	    -40.35763144	      0.05534746	    121.27314348	     87.34056332	      0.00000000	      0.00000000	    -36.14734730	    -57.20434962	     36.10469895	    106.84719041	     87.89535325	      0.00000000	      0.00000000
